<svg width="20" height="20" viewBox="0 0 20 20" fill="none" xmlns="http://www.w3.org/2000/svg">
<path d="M16.7 16.7L14.55 12.525L17.075 10L15 7.925V5H12.075L10 2.925L7.925 5H5V7.925L2.925 10L5 12.075V15H7.925L10 17.075L12.5 14.575L16.7 16.7ZM19.7 19.7C19.5667 19.8333 19.3957 19.925 19.187 19.975C18.9783 20.025 18.766 19.9917 18.55 19.875L12.9 17L10.7 19.2C10.5 19.4 10.2667 19.5 10 19.5C9.73333 19.5 9.5 19.4 9.3 19.2L7.1 17H4C3.71667 17 3.47933 16.904 3.288 16.712C3.09667 16.52 3.00067 16.2827 3 16V12.9L0.8 10.7C0.6 10.5 0.5 10.2667 0.5 10C0.5 9.73333 0.6 9.5 0.8 9.3L3 7.1V4C3 3.71667 3.096 3.47933 3.288 3.288C3.48 3.09667 3.71733 3.00067 4 3H7.1L9.3 0.8C9.5 0.6 9.73333 0.5 10 0.5C10.2667 0.5 10.5 0.6 10.7 0.8L12.9 3H16C16.2833 3 16.521 3.096 16.713 3.288C16.905 3.48 17.0007 3.71733 17 4V7.1L19.2 9.3C19.4 9.5 19.5 9.73333 19.5 10C19.5 10.2667 19.4 10.5 19.2 10.7L17 12.9L19.875 18.55C19.9917 18.7667 20.025 18.979 19.975 19.187C19.925 19.395 19.8333 19.566 19.7 19.7Z" fill="black"/>
</svg>
