<svg width="20" height="20" viewBox="0 0 20 20" fill="none" xmlns="http://www.w3.org/2000/svg">
<path d="M16.2 16.2L14.05 12.025L16.575 9.5L14.5 7.425V4.5H11.575L9.5 2.425L7.425 4.5H4.5V7.425L2.425 9.5L4.5 11.575V14.5H7.425L9.5 16.575L12 14.075L16.2 16.2ZM19.2 19.2C19.0667 19.3333 18.8957 19.425 18.687 19.475C18.4783 19.525 18.266 19.4917 18.05 19.375L12.4 16.5L10.2 18.7C10 18.9 9.76667 19 9.5 19C9.23333 19 9 18.9 8.8 18.7L6.6 16.5H3.5C3.21667 16.5 2.97933 16.404 2.788 16.212C2.59667 16.02 2.50067 15.7827 2.5 15.5V12.4L0.3 10.2C0.0999999 10 0 9.76667 0 9.5C0 9.23333 0.0999999 9 0.3 8.8L2.5 6.6V3.5C2.5 3.21667 2.596 2.97933 2.788 2.788C2.98 2.59667 3.21733 2.50067 3.5 2.5H6.6L8.8 0.3C9 0.0999999 9.23333 0 9.5 0C9.76667 0 10 0.0999999 10.2 0.3L12.4 2.5H15.5C15.7833 2.5 16.021 2.596 16.213 2.788C16.405 2.98 16.5007 3.21733 16.5 3.5V6.6L18.7 8.8C18.9 9 19 9.23333 19 9.5C19 9.76667 18.9 10 18.7 10.2L16.5 12.4L19.375 18.05C19.4917 18.2667 19.525 18.479 19.475 18.687C19.425 18.895 19.3333 19.066 19.2 19.2Z" fill="#9C1DFF"/>
</svg>
